<svg xmlns="http://www.w3.org/2000/svg" xmlns:v="https://svgstorm.com"
viewBox = "0 0 290 167"
width="290"
height="167">
<g fill="None" fill-opacity="0.0" stroke="#000000" stroke-opacity="0.00" stroke-width="0.3"><path d="
M 0.00 167.00 
L 288.00 167.00
C 289.62 120.76 289.00 74.80 289.00 28.00
C 289.00 24.33 289.00 20.67 289.00 17.00
C 289.00 15.00 289.00 13.00 289.00 11.00
C 289.00 7.33 289.00 3.67 289.00 0.00
L 0.00 0.00
L 0.00 167.00
M 189.00 31.00 
C 186.77 36.18 181.40 41.95 174.99 40.99 C 168.59 40.03 159.27 43.64 161.07 51.07 C 162.88 58.51 160.26 66.78 162.00 74.00 C 163.74 81.22 154.41 88.23 153.00 84.00
C 150.33 75.99 155.03 63.05 153.00 54.00 C 150.97 44.95 155.91 32.90 166.01 33.01 C 176.10 33.12 185.26 30.07 182.00 17.00
C 176.31 16.53 170.61 15.16 165.00 17.00
C 158.81 17.88 151.67 19.17 147.25 24.25 C 142.82 29.33 138.66 33.50 137.22 40.22 C 135.78 46.95 138.02 59.33 137.00 66.00 C 135.98 72.67 140.23 86.98 133.00 84.00
C 124.76 80.61 127.25 67.92 128.00 58.00 C 128.75 48.08 125.44 39.97 114.00 41.00 C 102.56 42.03 101.66 34.84 98.22 25.78 C 94.79 16.72 99.63 4.35 111.00 8.00 C 122.37 11.65 129.33 4.91 138.23 11.77 C 147.12 18.63 150.49 9.68 160.01 9.01 C 169.53 8.34 180.98 7.41 191.00 8.00
C 190.18 15.62 192.94 24.26 189.00 31.00
M 149.00 46.00 
C 148.38 51.51 149.00 57.45 149.00 63.00
C 149.00 69.56 153.35 85.86 146.92 89.92 C 140.48 93.97 138.51 77.04 140.00 70.00 C 141.49 62.96 138.63 49.41 140.99 41.99 C 143.35 34.58 145.91 29.21 152.75 24.75 C 159.58 20.28 169.45 19.24 178.00 20.00
C 182.63 30.45 169.92 28.62 162.93 29.93 C 155.93 31.24 149.62 38.98 149.00 46.00
M 26.00 108.00 
C 22.96 115.12 30.50 131.50 25.00 137.00
C 23.18 138.82 19.19 138.22 17.00 137.00
C 19.28 127.83 17.37 117.59 18.00 108.00
C 9.60 112.14 4.12 101.05 13.00 101.00 C 21.89 100.95 26.50 101.03 35.00 101.00
C 37.21 108.08 31.64 108.89 26.00 108.00
M 61.00 101.00 
C 84.35 105.18 75.82 143.89 52.33 137.67 C 28.84 131.45 37.35 96.76 61.00 101.00
M 88.00 126.00 
C 86.83 128.43 88.87 132.42 88.00 135.00
C 86.71 138.83 83.86 138.09 80.00 138.00
C 80.00 125.67 80.00 113.33 80.00 101.00
C 86.99 101.63 94.73 99.66 101.02 102.98 C 107.32 106.30 107.62 112.86 104.74 118.74 C 101.87 124.62 91.40 122.80 88.00 126.00
M 118.00 116.00 
C 117.68 117.92 117.65 121.09 118.00 123.00
C 121.02 131.93 132.41 133.78 137.00 125.00
C 139.55 127.63 142.53 123.90 145.00 126.00
C 138.34 144.73 109.46 140.09 109.02 119.98 C 108.59 99.86 138.17 93.56 145.00 113.00
C 141.67 113.00 138.33 113.00 135.00 113.00
C 132.82 104.28 118.45 107.89 118.00 116.00
M 158.00 103.00 
C 159.70 106.51 156.73 112.28 158.00 116.00
C 161.45 114.84 166.73 117.55 170.00 116.00
C 172.45 114.31 171.36 114.27 172.00 111.00
C 172.26 107.85 170.55 102.60 174.00 101.00
C 175.96 100.09 179.27 101.23 181.00 102.00
C 178.70 113.50 180.64 126.08 180.00 138.00
C 168.64 141.48 172.58 128.88 172.00 122.00
C 167.12 122.66 161.05 120.85 158.00 124.00
C 156.52 127.27 160.03 134.10 158.00 137.00
C 156.46 139.20 152.34 137.40 150.00 138.00
C 149.32 130.87 150.91 121.94 150.00 115.00 C 149.09 108.06 150.17 95.75 158.00 103.00
M 219.00 138.00 
C 213.56 139.21 208.25 137.27 209.00 131.00
C 204.33 131.00 199.67 131.00 195.00 131.00
C 194.44 136.65 190.92 139.45 185.00 138.00
C 186.12 126.35 192.13 123.04 193.93 110.93 C 195.72 98.82 208.41 98.93 209.93 111.07 C 211.44 123.22 218.40 126.22 219.00 138.00
M 243.00 123.00 
C 244.47 128.16 248.52 132.24 251.00 137.00
C 238.93 144.04 239.28 125.55 231.00 124.00
C 231.00 128.67 231.00 133.33 231.00 138.00
C 215.60 138.27 226.72 124.01 223.00 112.00 C 219.28 99.99 235.24 98.45 244.22 102.78 C 253.21 107.10 251.68 119.61 243.00 123.00
M 272.00 108.00 
C 271.24 112.20 273.02 119.06 272.00 123.00 C 270.98 126.94 274.31 135.72 271.00 138.00
C 269.24 139.21 264.66 137.64 263.00 137.00
C 265.28 127.83 263.37 117.59 264.00 108.00
C 255.60 112.14 250.12 101.05 259.00 101.00 C 267.89 100.95 272.50 101.03 281.00 101.00
C 283.21 108.08 277.64 108.89 272.00 108.00
M 74.00 146.00 
C 80.70 146.42 80.71 160.84 72.99 159.99 C 65.27 159.14 66.61 145.53 74.00 146.00
M 94.00 146.00 
C 95.32 148.09 97.29 149.60 98.00 152.00
C 99.97 150.63 97.74 145.76 102.00 147.00
C 102.00 151.33 102.00 155.67 102.00 160.00
C 98.62 159.71 97.66 155.43 96.00 153.00
C 93.50 154.33 96.57 158.74 94.00 160.00
C 92.41 156.40 92.29 149.53 94.00 146.00
M 112.00 147.00 
C 112.75 150.84 106.28 147.06 107.00 151.00
C 112.93 153.03 109.08 152.86 107.00 156.00
C 108.20 158.09 112.44 155.76 113.00 159.00
C 110.73 160.72 107.66 159.73 105.00 160.00
C 105.00 155.67 105.00 151.33 105.00 147.00
C 107.61 147.77 109.85 145.62 112.00 147.00
M 133.00 146.00 
C 134.17 150.01 129.12 147.87 129.04 151.04 C 128.95 154.20 129.82 157.75 128.00 160.00
C 125.84 157.24 127.55 152.51 127.00 149.00
C 123.34 149.34 120.60 150.13 117.00 149.00
C 113.82 153.52 118.04 160.59 123.00 156.00
C 121.77 165.97 109.57 154.92 114.33 149.33 C 119.09 143.74 126.95 149.55 133.00 146.00
M 186.00 146.00 
C 193.57 147.00 191.51 161.72 183.99 159.99 C 176.47 158.26 179.22 145.11 186.00 146.00
M 201.00 160.00 
C 198.90 159.93 197.30 156.99 197.00 155.00
C 193.16 154.25 196.94 160.72 193.00 160.00
C 191.82 155.06 189.42 145.22 197.03 146.98 C 204.63 148.74 197.48 154.82 201.00 160.00
M 231.00 150.00 
C 228.86 149.28 225.12 147.95 226.00 152.00
C 237.04 151.75 227.03 166.32 222.00 157.00
C 224.24 154.47 225.65 158.35 228.00 158.00
C 231.23 153.35 222.78 154.28 223.03 149.97 C 223.27 145.67 231.80 144.59 231.00 150.00
M 67.00 150.00 
C 58.74 144.82 58.35 161.68 67.00 157.00
C 65.14 162.70 58.81 159.17 58.03 153.97 C 57.24 148.78 65.61 142.91 67.00 150.00
M 87.00 154.00 
C 89.50 152.67 86.43 148.26 89.00 147.00
C 90.58 150.27 90.71 156.80 89.00 160.00
C 86.60 158.91 86.33 156.00 85.00 154.00
C 81.15 153.48 84.61 159.06 82.00 160.00
C 79.79 156.58 81.58 151.18 81.00 147.00
C 85.02 146.29 85.12 151.61 87.00 154.00
M 137.00 147.00 
C 135.94 151.03 139.64 159.05 134.00 160.00
C 135.25 156.02 131.07 147.08 137.00 147.00
M 146.00 147.00 
C 150.76 146.57 150.71 159.58 146.00 160.00
C 145.58 156.81 142.57 155.00 142.00 152.00
C 139.41 153.64 142.66 158.43 140.00 160.00
C 137.79 156.58 139.58 151.18 139.00 147.00
C 143.89 147.90 146.83 158.94 146.00 147.00
M 160.00 149.00 
C 157.50 150.32 153.33 147.79 153.03 152.03 C 152.72 156.26 154.34 158.28 158.00 157.00
C 155.71 154.49 154.21 151.20 160.00 152.00
C 162.50 159.78 154.37 162.43 150.75 156.25 C 147.13 150.08 155.68 143.36 160.00 149.00
M 168.00 154.00 
C 170.16 152.53 170.12 149.49 170.00 147.00
C 173.78 145.76 174.54 148.98 174.00 152.00
C 177.80 152.45 174.10 145.36 179.00 147.00
C 179.14 151.62 177.68 155.85 176.00 160.00
C 172.89 160.08 173.44 155.89 172.00 154.00
C 169.78 155.57 171.24 161.06 167.00 160.00
C 167.23 155.75 163.39 150.65 166.00 147.00
C 167.50 148.68 168.19 151.50 168.00 154.00
M 206.00 147.00 
C 205.68 150.34 206.84 154.06 205.00 157.00
C 206.78 158.47 209.07 155.96 211.00 158.00
C 203.58 167.17 198.74 147.64 206.00 147.00
M 212.00 147.00 
C 217.92 144.96 226.59 152.12 219.89 157.89 C 213.20 163.67 209.75 153.86 212.00 147.00
M 55.00 153.00 
C 42.99 155.97 28.32 152.04 16.00 155.00
C 17.99 149.49 27.79 152.40 34.00 152.00 C 40.21 151.60 49.04 151.51 55.00 153.00
M 274.00 153.00 
C 262.07 154.66 246.86 154.67 235.00 153.00
C 246.93 151.34 262.14 151.33 274.00 153.00 Z"/>
</g>
<g fill="None" fill-opacity="0.0" stroke="#2C3338" stroke-opacity="0.51" stroke-width="0.3"><path d="
M 289.00 11.00 
C 289.02 10.90 290.00 11.00 290.00 11.00
L 290.00 0.00
L 289.00 0.00
C 289.00 3.67 289.00 7.33 289.00 11.00 Z"/>
</g>
<g fill="None" fill-opacity="0.0" stroke="#00254F" stroke-opacity="0.94" stroke-width="0.3"><path d="
M 133.00 84.00 
C 138.26 82.25 133.73 66.98 135.00 61.00 C 136.27 55.02 133.45 43.58 136.32 37.32 C 139.19 31.06 141.75 28.24 146.75 22.75 C 151.75 17.26 158.68 16.89 165.00 17.00
C 170.61 15.16 176.31 16.53 182.00 17.00
C 185.26 30.07 176.10 33.12 166.01 33.01 C 155.91 32.90 150.97 44.95 153.00 54.00 C 155.03 63.05 150.33 75.99 153.00 84.00
C 155.49 80.92 161.80 80.34 160.00 74.00 C 158.20 67.66 160.86 61.70 160.00 56.00 C 159.14 50.30 159.34 44.75 163.25 41.25 C 167.16 37.74 175.24 41.67 179.01 39.01 C 182.78 36.35 186.41 34.60 189.00 31.00
C 192.94 24.26 190.18 15.62 191.00 8.00
C 180.98 7.41 169.53 8.34 160.01 9.01 C 150.49 9.68 147.12 18.63 138.23 11.77 C 129.33 4.91 122.37 11.65 111.00 8.00 C 99.63 4.35 94.79 16.72 98.22 25.78 C 101.66 34.84 102.56 42.03 114.00 41.00 C 125.44 39.97 128.75 48.08 128.00 58.00 C 127.25 67.92 124.76 80.61 133.00 84.00
M 122.00 17.00 
C 127.59 17.11 131.90 18.41 137.00 20.00
C 135.09 25.48 128.79 22.43 121.98 20.02 C 115.16 17.61 106.71 24.92 114.08 28.92 C 121.45 32.92 130.91 25.06 130.00 35.00
C 123.37 29.34 108.10 36.37 107.00 25.00
C 106.37 22.73 104.83 19.22 107.00 17.00
C 107.41 16.58 108.43 16.12 109.00 16.00
C 113.25 15.10 118.51 16.58 122.00 17.00 Z"/>
</g>
<g fill="None" fill-opacity="0.0" stroke="#1E252B" stroke-opacity="0.65" stroke-width="0.3"><path d="
M 289.00 17.00 
C 289.02 17.10 290.00 17.00 290.00 17.00
L 290.00 11.00
C 290.00 11.00 289.02 10.90 289.00 11.00
C 289.00 13.00 289.00 15.00 289.00 17.00 Z"/>
</g>
<g fill="None" fill-opacity="0.0" stroke="#000000" stroke-opacity="0.00" stroke-width="0.3"><path d="
M 107.00 17.00 
C 106.30 18.53 106.75 23.30 107.00 25.00
C 108.10 36.37 123.37 29.34 130.00 35.00
C 130.91 25.06 121.45 32.92 114.08 28.92 C 106.71 24.92 115.16 17.61 121.98 20.02 C 128.79 22.43 135.09 25.48 137.00 20.00
C 131.90 18.41 127.59 17.11 122.00 17.00
C 117.86 16.92 112.33 16.02 109.00 16.00
C 108.43 16.12 107.41 16.58 107.00 17.00 Z"/>
</g>
<g fill="None" fill-opacity="0.0" stroke="#1E496B" stroke-opacity="0.09" stroke-width="0.3"><path d="
M 122.00 17.00 
C 118.51 16.58 113.25 15.10 109.00 16.00
C 112.33 16.02 117.86 16.92 122.00 17.00 Z"/>
</g>
<g fill="None" fill-opacity="0.0" stroke="#184063" stroke-opacity="0.73" stroke-width="0.3"><path d="
M 133.00 84.00 
C 140.23 86.98 135.98 72.67 137.00 66.00 C 138.02 59.33 135.78 46.95 137.22 40.22 C 138.66 33.50 142.82 29.33 147.25 24.25 C 151.67 19.17 158.81 17.88 165.00 17.00
C 158.68 16.89 151.75 17.26 146.75 22.75 C 141.75 28.24 139.19 31.06 136.32 37.32 C 133.45 43.58 136.27 55.02 135.00 61.00 C 133.73 66.98 138.26 82.25 133.00 84.00 Z"/>
</g>
<g fill="None" fill-opacity="0.0" stroke="#1C4265" stroke-opacity="0.49" stroke-width="0.3"><path d="
M 107.00 25.00 
C 106.75 23.30 106.30 18.53 107.00 17.00
C 104.83 19.22 106.37 22.73 107.00 25.00 Z"/>
</g>
<g fill="None" fill-opacity="0.0" stroke="#141C22" stroke-opacity="0.80" stroke-width="0.3"><path d="
M 289.00 28.00 
C 289.00 27.96 290.00 28.00 290.00 28.00
L 290.00 17.00
C 290.00 17.00 289.02 17.10 289.00 17.00
C 289.00 20.67 289.00 24.33 289.00 28.00 Z"/>
</g>
<g fill="None" fill-opacity="0.0" stroke="#022852" stroke-opacity="0.90" stroke-width="0.3"><path d="
M 149.00 63.00 
C 148.48 57.61 147.74 51.41 149.00 46.00
C 149.62 38.98 155.93 31.24 162.93 29.93 C 169.92 28.62 182.63 30.45 178.00 20.00
C 169.45 19.24 159.58 20.28 152.75 24.75 C 145.91 29.21 143.35 34.58 140.99 41.99 C 138.63 49.41 141.49 62.96 140.00 70.00 C 138.51 77.04 140.48 93.97 146.92 89.92 C 153.35 85.86 149.00 69.56 149.00 63.00 Z"/>
</g>
<g fill="None" fill-opacity="0.0" stroke="#10181E" stroke-opacity="0.95" stroke-width="0.3"><path d="
M 288.00 167.00 
L 290.00 167.00
L 290.00 28.00
C 290.00 28.00 289.00 27.96 289.00 28.00
C 289.00 74.80 289.62 120.76 288.00 167.00 Z"/>
</g>
<g fill="None" fill-opacity="0.0" stroke="#1B3F63" stroke-opacity="0.67" stroke-width="0.3"><path d="
M 153.00 84.00 
C 154.41 88.23 163.74 81.22 162.00 74.00 C 160.26 66.78 162.88 58.51 161.07 51.07 C 159.27 43.64 168.59 40.03 174.99 40.99 C 181.40 41.95 186.77 36.18 189.00 31.00
C 186.41 34.60 182.78 36.35 179.01 39.01 C 175.24 41.67 167.16 37.74 163.25 41.25 C 159.34 44.75 159.14 50.30 160.00 56.00 C 160.86 61.70 158.20 67.66 160.00 74.00 C 161.80 80.34 155.49 80.92 153.00 84.00 Z"/>
</g>
<g fill="None" fill-opacity="0.0" stroke="#1B4164" stroke-opacity="0.69" stroke-width="0.3"><path d="
M 149.00 63.00 
C 149.00 57.45 148.38 51.51 149.00 46.00
C 147.74 51.41 148.48 57.61 149.00 63.00 Z"/>
</g>
<g fill="None" fill-opacity="0.0" stroke="#042752" stroke-opacity="0.93" stroke-width="0.3"><path d="
M 25.00 137.00 
C 27.25 133.79 23.41 125.60 25.00 122.00 C 26.59 118.40 22.57 110.40 26.00 108.00
C 31.64 108.89 37.21 108.08 35.00 101.00
C 26.50 101.03 21.89 100.95 13.00 101.00 C 4.12 101.05 9.60 112.14 18.00 108.00
C 17.37 117.59 19.28 127.83 17.00 137.00
C 19.19 138.22 23.18 138.82 25.00 137.00 Z"/>
</g>
<g fill="None" fill-opacity="0.0" stroke="#042852" stroke-opacity="0.91" stroke-width="0.3"><path d="
M 61.00 101.00 
C 37.35 96.76 28.84 131.45 52.33 137.67 C 75.82 143.89 84.35 105.18 61.00 101.00
M 60.00 108.00 
C 72.66 111.08 67.03 134.83 53.78 130.22 C 40.53 125.62 46.20 104.64 60.00 108.00 Z"/>
</g>
<g fill="None" fill-opacity="0.0" stroke="#042751" stroke-opacity="0.92" stroke-width="0.3"><path d="
M 88.00 135.00 
C 88.57 132.70 85.90 128.97 88.00 126.00
C 91.40 122.80 101.87 124.62 104.74 118.74 C 107.62 112.86 107.32 106.30 101.02 102.98 C 94.73 99.66 86.99 101.63 80.00 101.00
C 80.00 113.33 80.00 125.67 80.00 138.00
C 83.86 138.09 86.71 138.83 88.00 135.00
M 88.00 116.00 
C 86.83 114.13 86.20 110.80 88.00 109.00
C 92.25 104.75 99.12 109.21 98.00 114.00 C 96.88 118.79 89.63 118.61 88.00 116.00 Z"/>
</g>
<g fill="None" fill-opacity="0.0" stroke="#042852" stroke-opacity="0.90" stroke-width="0.3"><path d="
M 118.00 123.00 
C 117.06 120.22 117.14 118.72 118.00 116.00
C 118.45 107.89 132.82 104.28 135.00 113.00
C 138.33 113.00 141.67 113.00 145.00 113.00
C 138.17 93.56 108.59 99.86 109.02 119.98 C 109.46 140.09 138.34 144.73 145.00 126.00
C 142.53 123.90 139.55 127.63 137.00 125.00
C 132.41 133.78 121.02 131.93 118.00 123.00 Z"/>
</g>
<g fill="None" fill-opacity="0.0" stroke="#032651" stroke-opacity="0.91" stroke-width="0.3"><path d="
M 158.00 137.00 
C 156.67 133.91 155.95 126.96 158.00 124.00
C 161.05 120.85 167.12 122.66 172.00 122.00
C 172.58 128.88 168.64 141.48 180.00 138.00
C 180.64 126.08 178.70 113.50 181.00 102.00
C 179.27 101.23 175.96 100.09 174.00 101.00
C 172.50 102.03 172.27 109.65 172.00 111.00
C 171.36 114.27 172.45 114.31 170.00 116.00
C 167.80 117.52 160.04 118.04 158.00 116.00
C 154.82 112.82 159.02 105.51 158.00 103.00
C 150.17 95.75 149.09 108.06 150.00 115.00 C 150.91 121.94 149.32 130.87 150.00 138.00
C 152.34 137.40 156.46 139.20 158.00 137.00 Z"/>
</g>
<g fill="None" fill-opacity="0.0" stroke="#133861" stroke-opacity="0.07" stroke-width="0.3"><path d="
M 172.00 111.00 
C 172.27 109.65 172.50 102.03 174.00 101.00
C 170.55 102.60 172.26 107.85 172.00 111.00 Z"/>
</g>
<g fill="None" fill-opacity="0.0" stroke="#042852" stroke-opacity="0.89" stroke-width="0.3"><path d="
M 219.00 138.00 
C 218.40 126.22 211.44 123.22 209.93 111.07 C 208.41 98.93 195.72 98.82 193.93 110.93 C 192.13 123.04 186.12 126.35 185.00 138.00
C 190.92 139.45 194.44 136.65 195.00 131.00
C 199.67 131.00 204.33 131.00 209.00 131.00
C 208.25 137.27 213.56 139.21 219.00 138.00
M 206.00 124.00 
C 203.28 124.17 200.33 123.39 198.00 125.00
C 198.68 120.58 200.35 115.81 202.00 112.00
C 203.67 115.52 204.80 120.00 206.00 124.00 Z"/>
</g>
<g fill="None" fill-opacity="0.0" stroke="#042852" stroke-opacity="0.89" stroke-width="0.3"><path d="
M 243.00 123.00 
C 251.68 119.61 253.21 107.10 244.22 102.78 C 235.24 98.45 219.28 99.99 223.00 112.00 C 226.72 124.01 215.60 138.27 231.00 138.00
C 231.00 133.33 231.00 128.67 231.00 124.00
C 239.28 125.55 238.93 144.04 251.00 137.00
C 248.52 132.24 244.47 128.16 243.00 123.00
M 231.00 108.00 
C 236.35 105.81 246.67 110.89 240.29 116.29 C 233.92 121.69 228.51 114.89 231.00 108.00 Z"/>
</g>
<g fill="None" fill-opacity="0.0" stroke="#042852" stroke-opacity="0.95" stroke-width="0.3"><path d="
M 271.00 138.00 
C 271.76 133.78 269.98 126.95 271.00 123.00 C 272.02 119.05 268.69 110.32 272.00 108.00
C 277.64 108.89 283.21 108.08 281.00 101.00
C 272.50 101.03 267.89 100.95 259.00 101.00 C 250.12 101.05 255.60 112.14 264.00 108.00
C 263.37 117.59 265.28 127.83 263.00 137.00
C 264.66 137.64 269.24 139.21 271.00 138.00 Z"/>
</g>
<g fill="None" fill-opacity="0.0" stroke="#1D3F64" stroke-opacity="0.56" stroke-width="0.3"><path d="
M 158.00 116.00 
C 156.73 112.28 159.70 106.51 158.00 103.00
C 159.02 105.51 154.82 112.82 158.00 116.00 Z"/>
</g>
<g fill="None" fill-opacity="0.0" stroke="#214466" stroke-opacity="0.47" stroke-width="0.3"><path d="
M 25.00 137.00 
C 30.50 131.50 22.96 115.12 26.00 108.00
C 22.57 110.40 26.59 118.40 25.00 122.00 C 23.41 125.60 27.25 133.79 25.00 137.00 Z"/>
</g>
<g fill="None" fill-opacity="0.0" stroke="#000000" stroke-opacity="0.00" stroke-width="0.3"><path d="
M 60.00 108.00 
C 46.20 104.64 40.53 125.62 53.78 130.22 C 67.03 134.83 72.66 111.08 60.00 108.00 Z"/>
</g>
<g fill="None" fill-opacity="0.0" stroke="#000000" stroke-opacity="0.00" stroke-width="0.3"><path d="
M 88.00 109.00 
C 87.50 109.79 87.67 115.09 88.00 116.00
C 89.63 118.61 96.88 118.79 98.00 114.00 C 99.12 109.21 92.25 104.75 88.00 109.00 Z"/>
</g>
<g fill="None" fill-opacity="0.0" stroke="#000000" stroke-opacity="0.00" stroke-width="0.3"><path d="
M 231.00 108.00 
C 228.51 114.89 233.92 121.69 240.29 116.29 C 246.67 110.89 236.35 105.81 231.00 108.00 Z"/>
</g>
<g fill="None" fill-opacity="0.0" stroke="#23446A" stroke-opacity="0.16" stroke-width="0.3"><path d="
M 271.00 138.00 
C 274.31 135.72 270.98 126.94 272.00 123.00 C 273.02 119.06 271.24 112.20 272.00 108.00
C 268.69 110.32 272.02 119.05 271.00 123.00 C 269.98 126.95 271.76 133.78 271.00 138.00 Z"/>
</g>
<g fill="None" fill-opacity="0.0" stroke="#204367" stroke-opacity="0.63" stroke-width="0.3"><path d="
M 88.00 116.00 
C 87.67 115.09 87.50 109.79 88.00 109.00
C 86.20 110.80 86.83 114.13 88.00 116.00 Z"/>
</g>
<g fill="None" fill-opacity="0.0" stroke="#000000" stroke-opacity="0.00" stroke-width="0.3"><path d="
M 206.00 124.00 
C 204.80 120.00 203.67 115.52 202.00 112.00
C 200.35 115.81 198.68 120.58 198.00 125.00
C 200.33 123.39 203.28 124.17 206.00 124.00 Z"/>
</g>
<g fill="None" fill-opacity="0.0" stroke="#234865" stroke-opacity="0.04" stroke-width="0.3"><path d="
M 118.00 123.00 
C 117.65 121.09 117.68 117.92 118.00 116.00
C 117.14 118.72 117.06 120.22 118.00 123.00 Z"/>
</g>
<g fill="None" fill-opacity="0.0" stroke="#002A53" stroke-opacity="0.71" stroke-width="0.3"><path d="
M 170.00 116.00 
C 166.73 117.55 161.45 114.84 158.00 116.00
C 160.04 118.04 167.80 117.52 170.00 116.00 Z"/>
</g>
<g fill="None" fill-opacity="0.0" stroke="#1F4265" stroke-opacity="0.58" stroke-width="0.3"><path d="
M 158.00 137.00 
C 160.03 134.10 156.52 127.27 158.00 124.00
C 155.95 126.96 156.67 133.91 158.00 137.00 Z"/>
</g>
<g fill="None" fill-opacity="0.0" stroke="#214467" stroke-opacity="0.67" stroke-width="0.3"><path d="
M 88.00 135.00 
C 88.87 132.42 86.83 128.43 88.00 126.00
C 85.90 128.97 88.57 132.70 88.00 135.00 Z"/>
</g>
<g fill="None" fill-opacity="0.0" stroke="#1C3557" stroke-opacity="0.63" stroke-width="0.3"><path d="
M 74.00 146.00 
C 66.61 145.53 65.27 159.14 72.99 159.99 C 80.71 160.84 80.70 146.42 74.00 146.00
M 75.00 149.00 
C 77.72 150.56 76.50 158.47 72.75 157.20 C 69.01 155.93 71.06 146.73 75.00 149.00 Z"/>
</g>
<g fill="None" fill-opacity="0.0" stroke="#1A3354" stroke-opacity="0.73" stroke-width="0.3"><path d="
M 94.00 146.00 
C 92.29 149.53 92.41 156.40 94.00 160.00
C 96.57 158.74 93.50 154.33 96.00 153.00
C 97.66 155.43 98.62 159.71 102.00 160.00
C 102.00 155.67 102.00 151.33 102.00 147.00
C 97.74 145.76 99.97 150.63 98.00 152.00
C 97.29 149.60 95.32 148.09 94.00 146.00 Z"/>
</g>
<g fill="None" fill-opacity="0.0" stroke="#1D3758" stroke-opacity="0.75" stroke-width="0.3"><path d="
M 112.00 147.00 
C 109.85 145.62 107.61 147.77 105.00 147.00
C 105.00 151.33 105.00 155.67 105.00 160.00
C 107.66 159.73 110.73 160.72 113.00 159.00
C 112.44 155.76 108.20 158.09 107.00 156.00
C 109.08 152.86 112.93 153.03 107.00 151.00
C 106.28 147.06 112.75 150.84 112.00 147.00 Z"/>
</g>
<g fill="None" fill-opacity="0.0" stroke="#1E385A" stroke-opacity="0.71" stroke-width="0.3"><path d="
M 133.00 146.00 
C 126.95 149.55 119.09 143.74 114.33 149.33 C 109.57 154.92 121.77 165.97 123.00 156.00
C 118.04 160.59 113.82 153.52 117.00 149.00
C 120.60 150.13 123.34 149.34 127.00 149.00
C 127.55 152.51 125.84 157.24 128.00 160.00
C 129.82 157.75 128.95 154.20 129.04 151.04 C 129.12 147.87 134.17 150.01 133.00 146.00 Z"/>
</g>
<g fill="None" fill-opacity="0.0" stroke="#1C3557" stroke-opacity="0.69" stroke-width="0.3"><path d="
M 186.00 146.00 
C 179.22 145.11 176.47 158.26 183.99 159.99 C 191.51 161.72 193.57 147.00 186.00 146.00
M 187.00 149.00 
C 190.05 150.89 187.52 159.48 183.77 157.21 C 180.02 154.94 182.79 146.39 187.00 149.00 Z"/>
</g>
<g fill="None" fill-opacity="0.0" stroke="#1B3355" stroke-opacity="0.72" stroke-width="0.3"><path d="
M 201.00 160.00 
C 197.48 154.82 204.63 148.74 197.03 146.98 C 189.42 145.22 191.82 155.06 193.00 160.00
C 196.94 160.72 193.16 154.25 197.00 155.00
C 197.30 156.99 198.90 159.93 201.00 160.00
M 195.00 152.00 
C 194.45 145.25 202.59 152.87 195.00 152.00 Z"/>
</g>
<g fill="None" fill-opacity="0.0" stroke="#1D3758" stroke-opacity="0.62" stroke-width="0.3"><path d="
M 231.00 150.00 
C 231.80 144.59 223.27 145.67 223.03 149.97 C 222.78 154.28 231.23 153.35 228.00 158.00
C 225.65 158.35 224.24 154.47 222.00 157.00
C 227.03 166.32 237.04 151.75 226.00 152.00
C 225.12 147.95 228.86 149.28 231.00 150.00 Z"/>
</g>
<g fill="None" fill-opacity="0.0" stroke="#1D3759" stroke-opacity="0.67" stroke-width="0.3"><path d="
M 67.00 150.00 
C 65.61 142.91 57.24 148.78 58.03 153.97 C 58.81 159.17 65.14 162.70 67.00 157.00
C 58.35 161.68 58.74 144.82 67.00 150.00 Z"/>
</g>
<g fill="None" fill-opacity="0.0" stroke="#1A3357" stroke-opacity="0.80" stroke-width="0.3"><path d="
M 87.00 154.00 
C 85.12 151.61 85.02 146.29 81.00 147.00
C 81.58 151.18 79.79 156.58 82.00 160.00
C 84.61 159.06 81.15 153.48 85.00 154.00
C 86.33 156.00 86.60 158.91 89.00 160.00
C 90.71 156.80 90.58 150.27 89.00 147.00
C 86.43 148.26 89.50 152.67 87.00 154.00 Z"/>
</g>
<g fill="None" fill-opacity="0.0" stroke="#1D3859" stroke-opacity="0.62" stroke-width="0.3"><path d="
M 137.00 147.00 
C 131.07 147.08 135.25 156.02 134.00 160.00
C 139.64 159.05 135.94 151.03 137.00 147.00 Z"/>
</g>
<g fill="None" fill-opacity="0.0" stroke="#1B3455" stroke-opacity="0.67" stroke-width="0.3"><path d="
M 146.00 147.00 
C 146.83 158.94 143.89 147.90 139.00 147.00
C 139.58 151.18 137.79 156.58 140.00 160.00
C 142.66 158.43 139.41 153.64 142.00 152.00
C 142.57 155.00 145.58 156.81 146.00 160.00
C 150.71 159.58 150.76 146.57 146.00 147.00 Z"/>
</g>
<g fill="None" fill-opacity="0.0" stroke="#1D3858" stroke-opacity="0.63" stroke-width="0.3"><path d="
M 160.00 149.00 
C 155.68 143.36 147.13 150.08 150.75 156.25 C 154.37 162.43 162.50 159.78 160.00 152.00
C 154.21 151.20 155.71 154.49 158.00 157.00
C 154.34 158.28 152.72 156.26 153.03 152.03 C 153.33 147.79 157.50 150.32 160.00 149.00 Z"/>
</g>
<g fill="None" fill-opacity="0.0" stroke="#1A3355" stroke-opacity="0.69" stroke-width="0.3"><path d="
M 168.00 154.00 
C 168.19 151.50 167.50 148.68 166.00 147.00
C 163.39 150.65 167.23 155.75 167.00 160.00
C 171.24 161.06 169.78 155.57 172.00 154.00
C 173.44 155.89 172.89 160.08 176.00 160.00
C 177.68 155.85 179.14 151.62 179.00 147.00
C 174.10 145.36 177.80 152.45 174.00 152.00
C 174.54 148.98 173.78 145.76 170.00 147.00
C 170.12 149.49 170.16 152.53 168.00 154.00 Z"/>
</g>
<g fill="None" fill-opacity="0.0" stroke="#1E3A5A" stroke-opacity="0.64" stroke-width="0.3"><path d="
M 206.00 147.00 
C 198.74 147.64 203.58 167.17 211.00 158.00
C 209.07 155.96 206.78 158.47 205.00 157.00
C 206.84 154.06 205.68 150.34 206.00 147.00 Z"/>
</g>
<g fill="None" fill-opacity="0.0" stroke="#1B3456" stroke-opacity="0.72" stroke-width="0.3"><path d="
M 212.00 147.00 
C 209.75 153.86 213.20 163.67 219.89 157.89 C 226.59 152.12 217.92 144.96 212.00 147.00
M 215.00 158.00 
C 213.18 155.42 214.33 151.98 214.00 149.00
C 219.78 148.09 220.10 157.18 215.00 158.00 Z"/>
</g>
<g fill="None" fill-opacity="0.0" stroke="#000000" stroke-opacity="0.00" stroke-width="0.3"><path d="
M 75.00 149.00 
C 71.06 146.73 69.01 155.93 72.75 157.20 C 76.50 158.47 77.72 150.56 75.00 149.00 Z"/>
</g>
<g fill="None" fill-opacity="0.0" stroke="#000000" stroke-opacity="0.00" stroke-width="0.3"><path d="
M 187.00 149.00 
C 182.79 146.39 180.02 154.94 183.77 157.21 C 187.52 159.48 190.05 150.89 187.00 149.00 Z"/>
</g>
<g fill="None" fill-opacity="0.0" stroke="#000000" stroke-opacity="0.00" stroke-width="0.3"><path d="
M 195.00 152.00 
C 202.59 152.87 194.45 145.25 195.00 152.00 Z"/>
</g>
<g fill="None" fill-opacity="0.0" stroke="#000000" stroke-opacity="0.00" stroke-width="0.3"><path d="
M 215.00 158.00 
C 220.10 157.18 219.78 148.09 214.00 149.00
C 214.33 151.98 213.18 155.42 215.00 158.00 Z"/>
</g>
<g fill="None" fill-opacity="0.0" stroke="#1C3456" stroke-opacity="0.96" stroke-width="0.3"><path d="
M 55.00 153.00 
C 49.04 151.51 40.21 151.60 34.00 152.00 C 27.79 152.40 17.99 149.49 16.00 155.00
C 28.32 152.04 42.99 155.97 55.00 153.00 Z"/>
</g>
<g fill="None" fill-opacity="0.0" stroke="#1C3355" stroke-opacity="0.96" stroke-width="0.3"><path d="
M 274.00 153.00 
C 262.14 151.33 246.93 151.34 235.00 153.00
C 246.86 154.67 262.07 154.66 274.00 153.00 Z"/>
</g>
</svg>